<svg width="464" height="45" viewBox="0 0 464 45" fill="none" xmlns="http://www.w3.org/2000/svg">
<g clip-path="url(#clip0_219_67061)">
<path d="M17.366 0.84668C35.5791 0.84668 35.5791 19.9069 17.366 19.9069H15.6718L25.8372 21.6012L39.8148 42.3557H39.3912L22.4487 34.308L13.9775 21.1776V32.6138L17.366 36.0023V36.4258H0V36.0023L3.38849 32.6138V4.65873L0 1.27024V0.84668H17.366V0.84668ZM13.9775 2.11736V18.6363H15.2482C22.8723 18.6363 22.8723 2.11736 15.2482 2.11736H13.9775V2.11736Z" fill="white"/>
<path d="M72.0052 18.6367C72.0052 27.955 66.0754 37.2734 53.7921 37.2734C41.5088 37.2734 35.579 27.955 35.579 18.6367C35.1554 9.31835 41.5088 0 53.3685 0C65.6518 0 72.0052 9.31835 72.0052 18.6367ZM52.0979 1.27068C51.2507 1.27068 50.8272 1.27068 49.9801 2.11781C41.5088 7.20054 47.0151 35.5791 55.0628 35.5791C55.9099 35.5791 56.3335 35.5791 57.1806 34.732C65.6518 29.6493 60.1455 1.27068 52.0979 1.27068Z" fill="white"/>
<path d="M74.9703 0.84668H105.467L107.161 12.2828H106.737L95.7248 2.54092H94.8777V33.0373L98.2662 36.4258V36.8494H80.9002V36.4258L84.2886 33.0373V2.11736H83.4415L72.4289 11.8593H72.0054L74.9703 0.84668Z" fill="white"/>
<path d="M110.55 0.84668H141.046L142.741 12.2828H142.317L131.304 2.54092V33.0373L134.693 36.4258V36.8494H117.327V36.4258L120.715 33.0373V2.11736H119.868L108.856 11.8593H108.432L110.55 0.84668Z" fill="white"/>
<path d="M167.307 24.9897C167.307 24.9897 166.884 24.9897 167.307 24.9897L161.801 19.0598H158.412V32.1902C158.412 34.308 159.683 34.7316 160.53 34.7316H161.801L175.355 23.2954H175.778L172.39 36.0023H144.435V35.5787L148.247 32.6138V4.65873L144.858 1.27024V0.84668H171.119V1.27024L171.966 11.0121H171.543L163.495 2.54092H158.836V18.2127H162.224L167.307 12.7064H167.731V24.9897H167.307Z" fill="white"/>
<path d="M177.049 36.426C177.049 36.426 177.049 36.0025 177.049 36.426L181.284 30.4962V5.92964C181.284 2.11758 178.743 1.27046 177.896 0.846901V0.42334H189.332L207.969 21.1778V6.77676L201.192 1.27046V0.846901H213.899V1.27046L209.663 7.20032V36.8496H207.545L182.979 8.471V30.4962L189.756 36.0025V36.426H177.049Z" fill="white"/>
<path d="M249.054 0.84668C267.267 0.84668 267.267 19.9069 249.054 19.9069H247.783L257.949 21.6012L271.926 41.9321L271.079 42.3557L254.136 34.308L245.665 21.1776V32.6138L249.054 36.0023V36.4258H231.688V36.0023L235.076 32.6138V4.65873L231.688 1.27024V0.84668H249.054V0.84668ZM245.665 2.11736V18.6363H246.936C254.56 18.6363 254.56 2.11736 246.936 2.11736H245.665V2.11736Z" fill="white"/>
<path d="M290.14 0.84668H278.704V1.27024L282.939 9.74146L271.503 35.1551L272.35 36.4258L276.162 28.3782H292.258L295.223 34.308L310.471 45.3206H310.894L290.14 0.84668ZM276.586 27.1075L283.786 11.4357L291.834 27.1075H276.586Z" fill="white"/>
<path d="M306.235 0.84668H336.732L338.426 12.2828H338.002L326.99 2.54092H326.143V33.0373L329.531 36.4258V36.8494H312.165V36.4258L315.554 33.0373V2.11736H314.706L303.694 11.8593H303.27L306.235 0.84668Z" fill="white"/>
<path d="M343.508 28.8017V4.65873L340.12 1.27024V0.84668H357.486V1.27024L354.097 4.65873V41.9321H353.674L343.508 28.8017Z" fill="white"/>
<path d="M365.533 8.471V30.0726L372.31 35.5789V36.0025H359.603V35.5789L363.839 30.0726V5.92964C363.839 2.11758 361.297 1.27046 360.45 0.846901V0.42334H371.886L390.523 25.837V6.3532L383.746 0.846901V0.42334H390.523H396.453V0.846901L392.217 6.77676V41.9323H391.37L365.533 8.471Z" fill="white"/>
<path d="M422.29 22.872L418.902 18.2129V17.7893H430.761V41.5087L422.29 36.0024C421.019 36.426 419.325 36.8496 418.054 36.8496C405.771 36.8496 399.841 27.5312 399.841 18.2129C399.841 5.08247 410.007 -0.423828 418.478 -0.423828L430.338 2.5411L429.067 13.1301L418.478 0.846856C404.077 0.846856 409.16 33.4611 422.29 33.4611V22.872V22.872Z" fill="white"/>
<path d="M449.398 36.8498C445.163 36.8498 440.08 34.732 437.115 32.1907L438.386 21.1781L448.128 35.1556C451.516 35.1556 454.481 33.8849 454.481 30.0728C454.481 22.4487 436.268 22.4487 436.268 9.74191C436.268 2.96493 442.198 0 448.551 0L461.258 2.96493L459.564 13.554L449.398 1.27068C446.434 1.27068 444.316 2.96493 444.316 6.35342C444.316 13.9775 463.8 14.4011 463.8 26.2608C463.8 33.8849 456.599 36.8498 449.398 36.8498Z" fill="white"/>
</g>
<defs>
<clipPath id="clip0_219_67061">
<rect width="463.8" height="44.8975" fill="white"/>
</clipPath>
</defs>
</svg>
